<?xml version="1.0" standalone="no"?>
<!DOCTYPE svg PUBLIC "-//W3C//DTD SVG 20010904//EN"
 "http://www.w3.org/TR/2001/REC-SVG-20010904/DTD/svg10.dtd">
<svg version="1.0" xmlns="http://www.w3.org/2000/svg"
 width="1920.000000pt" height="1080.000000pt" viewBox="0 0 1920.000000 1080.000000"
 preserveAspectRatio="xMidYMid meet">

<g transform="translate(0.000000,1080.000000) scale(0.100000,-0.100000)"
fill="#000000" stroke="none">
<path d="M7505 5405 c-142 -53 -208 -225 -139 -363 64 -129 246 -178 400 -108
l54 25 0 105 0 106 -60 0 -60 0 0 -69 c0 -78 -3 -81 -78 -81 -93 0 -148 61
-140 157 4 41 11 60 33 83 54 56 146 63 203 15 l27 -23 44 39 c44 39 44 39 25
60 -10 12 -37 30 -59 42 -52 27 -191 33 -250 12z"/>
<path d="M7870 5253 c0 -171 9 -220 47 -271 77 -102 279 -109 366 -13 20 22
40 57 46 78 6 21 11 111 11 201 l0 162 -70 0 -70 0 0 -160 c0 -208 -10 -230
-99 -230 -27 0 -44 7 -62 26 -23 25 -24 32 -27 195 l-3 169 -70 0 -69 0 0
-157z"/>
<path d="M8541 5368 c-10 -24 -54 -122 -96 -218 -43 -96 -84 -190 -91 -207
l-14 -33 70 0 71 0 21 50 21 50 106 0 107 0 21 -50 21 -50 141 0 140 0 3 68 3
67 37 3 c36 3 39 1 84 -67 l47 -71 75 0 74 0 -17 28 c-10 15 -33 49 -52 76
l-35 48 36 33 c43 39 56 71 56 136 0 55 -15 92 -52 126 -47 44 -88 53 -248 53
l-150 0 -2 -241 -3 -241 -106 238 -105 239 -72 3 -72 3 -19 -43z m669 -88 c27
-27 26 -81 -1 -106 -14 -12 -40 -19 -85 -22 l-64 -4 0 76 0 76 65 0 c52 0 69
-4 85 -20z m-546 -89 c14 -36 26 -68 26 -73 0 -10 -120 -11 -120 0 -1 19 55
151 61 144 4 -4 19 -36 33 -71z"/>
<path d="M9410 5160 l0 -250 135 0 c157 0 216 11 278 50 161 102 132 362 -49
429 -47 18 -78 21 -209 21 l-155 0 0 -250z m309 122 c64 -35 88 -114 53 -181
-28 -56 -61 -73 -146 -79 l-76 -5 0 142 0 141 68 0 c46 0 78 -6 101 -18z"/>
<path d="M11100 5160 l0 -250 70 0 70 0 0 130 c0 72 3 130 8 130 4 -1 54 -59
112 -130 l105 -130 58 0 57 0 0 250 0 250 -70 0 -70 0 0 -131 0 -132 -107 131
-108 132 -62 0 -63 0 0 -250z"/>
<path d="M10085 5321 c-150 -68 -153 -290 -6 -368 44 -23 45 -23 425 -23 350
0 384 2 421 19 79 36 115 95 115 186 0 67 -13 101 -53 143 -59 62 -61 62 -481
62 -348 0 -384 -2 -421 -19z m853 -49 c70 -51 89 -156 40 -229 -48 -73 -48
-73 -476 -73 -378 0 -379 0 -413 23 -53 35 -79 82 -79 140 0 62 29 117 79 146
35 20 44 21 426 18 l390 -2 33 -23z"/>
<path d="M10443 5213 c9 -2 17 -6 17 -9 0 -15 -72 -144 -80 -144 -6 0 -10 -4
-10 -10 0 -5 14 -10 30 -10 29 0 41 15 18 22 -24 8 5 28 42 28 37 0 66 -20 42
-28 -23 -7 -11 -22 18 -22 33 0 37 5 16 25 -7 7 -21 45 -32 84 -17 69 -19 71
-48 70 -17 -1 -23 -3 -13 -6z m45 -65 l10 -38 -34 0 -34 0 20 41 c12 23 23 39
25 37 1 -1 8 -20 13 -40z"/>
<path d="M10579 5211 c11 -7 12 -24 7 -78 -4 -37 -11 -69 -16 -71 -22 -8 -8
-22 20 -22 17 0 30 5 30 10 0 6 -5 10 -11 10 -19 0 -2 132 18 148 14 10 11 12
-23 12 -26 0 -35 -3 -25 -9z"/>
</g>
</svg>
